PathFileType	4	(X/Y/Z)	C:\Users\chris\Documents\GitHub\baseballds\vids\pitch7_Sports2D\pitch7_Sports2D_m_person00.trc
DataRate	CameraRate	NumFrames	NumMarkers	Units	OrigDataRate	OrigDataStartFrame	OrigNumFrames
30	30	12	22	m	30	177	236
Frame#	Time	Hip			RHip			RKnee			RAnkle			RBigToe			RSmallToe			RHeel			LHip			LKnee			LAnkle			LBigToe			LSmallToe			LHeel			Neck			Head			Nose			RShoulder			RElbow			RWrist			LShoulder			LElbow			LWrist		
		X1	Y1	Z1	X2	Y2	Z2	X3	Y3	Z3	X4	Y4	Z4	X5	Y5	Z5	X6	Y6	Z6	X7	Y7	Z7	X8	Y8	Z8	X9	Y9	Z9	X10	Y10	Z10	X11	Y11	Z11	X12	Y12	Z12	X13	Y13	Z13	X14	Y14	Z14	X15	Y15	Z15	X16	Y16	Z16	X17	Y17	Z17	X18	Y18	Z18	X19	Y19	Z19	X20	Y20	Z20	X21	Y21	Z21	X22	Y22	Z22
177	5.9	1.8109634486832762	0.9980190253828362	0.0	1.7169225779026365	0.9537788571608794	0.0	1.7303423816444718	0.5227305978432216	0.0	1.7489992248793305	0.13412782548151383	0.0	1.7770453403871094	-0.014637054106529285	0.0	1.713787791679183	-0.0014749217221262819	0.0	1.7590876281187704	0.0876533611526173	0.0	1.9329070778053894	0.9811494979081669	0.0	1.81516356663727	0.7822156206565696	0.0	1.7832909897140141	0.38214447423675096	0.0	1.7493080028207137	0.24075968765158348	0.0	1.8108493271780566	0.24212457326458847	0.0	1.7681688875954453	0.3471033422858511	0.0	1.7745426326880769	1.5292300336370737	0.0	1.81446970252051	1.8092039574643644	0.0	1.870673455296542	1.6649744679392608	0.0	1.6073940430387592	1.446863341216866	0.0	1.4968940753389586	1.1662543677387809	0.0	1.603867050705872	1.3053905881492216	0.0	1.9552143449664474	1.451811449296676	0.0	2.0144935829994584	1.152466246353969	0.0	1.8430134765854134	1.3043073591312198	0.0
178	5.933333333333334	1.8154403856273618	1.0069178074676404	0.0	1.724429430786524	0.9623355761819022	0.0	1.7350982354323876	0.5271089707333104	0.0	1.7520790623111009	0.14690447862996697	0.0	1.7792295960782596	-0.013049504320092442	0.0	1.7195388914107743	-0.0007932674922339102	0.0	1.7546161037562855	0.10040572250051812	0.0	1.944972455867455	0.9821321888983721	0.0	1.7829359403662528	0.8845490886390998	0.0	1.7235870489570237	0.4567584016782115	0.0	1.650407286424517	0.34533077880005797	0.0	1.710419656635099	0.32258779375994134	0.0	1.7081366466402443	0.42100433455095926	0.0	1.7765545798436895	1.5316606659889271	0.0	1.8158409469090369	1.809844620426398	0.0	1.869201799651227	1.665738215791372	0.0	1.6132494557008705	1.4571776081525007	0.0	1.4900581322085353	1.1817343317114557	0.0	1.5991736047119591	1.3362355598095474	0.0	1.9547533898534222	1.460198931872677	0.0	2.007779002915532	1.1651823282394365	0.0	1.834821933986678	1.3405535264593027	0.0
179	5.966666666666667	1.821450941474343	1.0115045213140805	0.0	1.7332886552685354	0.9652198644183225	0.0	1.7403295794230738	0.5290148011330325	0.0	1.7528808413130348	0.154611976622144	0.0	1.7765080331206544	-0.011317525852080493	0.0	1.7221711002187663	-0.002052876060863186	0.0	1.7493982290490127	0.10580541497064871	0.0	1.9539589447508723	0.9750214670106416	0.0	1.753259287208259	0.9622860932175148	0.0	1.6719219325751569	0.532719245345924	0.0	1.5626896898797225	0.46430710956373966	0.0	1.6174296473700507	0.41810001186519213	0.0	1.6600436710791073	0.4890874864697466	0.0	1.7828166633378715	1.5339263188069268	0.0	1.821311973648018	1.8101331112451913	0.0	1.8699551260530662	1.6639897274484434	0.0	1.621921898347377	1.4566849083728173	0.0	1.4851315126535718	1.19649425974708	0.0	1.5936578405136845	1.3723190990091918	0.0	1.9548737765402684	1.4699864787681882	0.0	2.0019773763336013	1.181330542365153	0.0	1.8287717553305378	1.3790674273320946	0.0
180	6.0	1.827508023502747	1.0086936160550337	0.0	1.7405987467731334	0.9620211258320744	0.0	1.7458824629203047	0.5302344460734528	0.0	1.752551965405269	0.15613252243818113	0.0	1.7733194279912812	-0.00773058758571141	0.0	1.7233305705224793	-0.0031150675762705517	0.0	1.7479057772334792	0.10634327345652209	0.0	1.958461569324179	0.9674540783280011	0.0	1.7322542445379492	1.0290292061150563	0.0	1.6320806291188266	0.6174861238594288	0.0	1.500108720037722	0.5955201440357925	0.0	1.5493253538599034	0.5340650222209249	0.0	1.620472200531479	0.5546346374800993	0.0	1.791759931788233	1.5331187784078215	0.0	1.8267824800770693	1.8091950641224994	0.0	1.8718359578171475	1.6588413049630333	0.0	1.633530170488972	1.446514842185571	0.0	1.4811039157692445	1.209213257359974	0.0	1.5898810817108673	1.406592666054575	0.0	1.956486894096091	1.4776443999022502	0.0	1.9965827359435426	1.1989445501052056	0.0	1.8254071274854005	1.4136993394803747	0.0
181	6.033333333333333	1.8329616223889162	0.9977495544050646	0.0	1.7452524959167248	0.9539802783404316	0.0	1.751212275304804	0.5308357404578609	0.0	1.7519276110503796	0.15857246237275416	0.0	1.7742829629104966	-0.0010828393033278437	0.0	1.7248819713358468	-0.0013015426481649162	0.0	1.7502660819569809	0.11144811800996493	0.0	1.959399919063966	0.9637204448198962	0.0	1.724109451816742	1.1083197064196812	0.0	1.6048220225049223	0.7093237286329431	0.0	1.4587385125150103	0.7212873949607396	0.0	1.5046534372204903	0.6561323431978066	0.0	1.58850783616527	0.6265202710921995	0.0	1.7990399935956265	1.5274595077624216	0.0	1.8266629699204575	1.8037759582854085	0.0	1.8699859205480014	1.6504731373184949	0.0	1.6438839321362775	1.4349615764140748	0.0	1.4790834461209788	1.2203259702884304	0.0	1.5914620704920035	1.4360374329364556	0.0	1.9611229420000125	1.479865373639572	0.0	1.9954956128435983	1.2171124995291807	0.0	1.8256787243762387	1.4390906772947176	0.0
182	6.066666666666666	1.838873994755638	0.9836805291454631	0.0	1.7498780821843223	0.9432662937435048	0.0	1.7538009493201334	0.5273624525189059	0.0	1.7512120088129437	0.16076214412614764	0.0	1.7750183252944338	0.00413385731626652	0.0	1.7233972998937468	0.0008046883363754724	0.0	1.7547431331255725	0.1170062116429625	0.0	1.9559812546815452	0.9628151727392836	0.0	1.727005452599827	1.1979547648155493	0.0	1.5877410147549142	0.7926146482082197	0.0	1.428421733627584	0.8251458741565418	0.0	1.4704113378037864	0.7669877476854146	0.0	1.5684521699868919	0.7014130708590341	0.0	1.8003531697940984	1.5179807253219604	0.0	1.8171557679933374	1.7896926030022902	0.0	1.858956084184645	1.6380586237897237	0.0	1.6489556290725702	1.426208591414308	0.0	1.480114944172589	1.2302890967552178	0.0	1.597571691801893	1.4619347101172344	0.0	1.9656779624441412	1.4762433301717242	0.0	2.004165793649956	1.2362900445587206	0.0	1.8300544910729653	1.4562271970032956	0.0
183	6.1	1.8454674131601332	0.9744822672924384	0.0	1.7584708397231201	0.9348739591971842	0.0	1.753010736949543	0.5212860836182972	0.0	1.7503605128881041	0.15803722423360891	0.0	1.7705623823660495	0.004374785554016235	0.0	1.7176859598299792	-0.00024292114958331348	0.0	1.759509748407102	0.11473613923029802	0.0	1.9487346940478079	0.9649614579163927	0.0	1.733456459795448	1.2718164910364402	0.0	1.5784840964397275	0.8532345060137013	0.0	1.4069636308540678	0.8983444551430328	0.0	1.4417918967938872	0.8517023719198116	0.0	1.5606236068533152	0.762737243918367	0.0	1.7961587861886656	1.5082772523410657	0.0	1.8019366999065556	1.7691640630474408	0.0	1.84142865615763	1.6224469648749975	0.0	1.649092537078758	1.419694401538427	0.0	1.482571507782883	1.2387422345273091	0.0	1.6028674848642332	1.4818535727091493	0.0	1.9657086602144378	1.4708782865583174	0.0	2.0191029450069564	1.2548673565722346	0.0	1.8352270731319795	1.4695125114445138	0.0
184	6.133333333333333	1.8499919980979307	0.9740703976623588	0.0	1.7683725925047473	0.933275032232408	0.0	1.7528921189685458	0.5184929734285361	0.0	1.749918750511658	0.15208834895745663	0.0	1.763983560117316	0.00043743911751676257	0.0	1.712107114599314	-0.004650388325360006	0.0	1.7630308800720444	0.10590655531500458	0.0	1.9435749496543235	0.9711796965494537	0.0	1.7365584275160846	1.3113479216208026	0.0	1.5773042195621687	0.8865893741161704	0.0	1.3958857750699405	0.9358594070012521	0.0	1.4231598516918227	0.8965371806228004	0.0	1.5617190356715918	0.7946252382805064	0.0	1.7934646897859494	1.5057633674208861	0.0	1.7966257432261465	1.7552908766760298	0.0	1.8333376481998054	1.6114843483294246	0.0	1.6485315179270659	1.4205876738647516	0.0	1.4849983596787537	1.2440760231805024	0.0	1.6050364312655785	1.490347397294363	0.0	1.9630382728525826	1.4715819313128227	0.0	2.026115381681625	1.2674829881081695	0.0	1.838048519608434	1.4773098647600347	0.0
185	6.166666666666667	1.8518977981778735	0.979177723610606	0.0	1.7732698391250938	0.9368288069841771	0.0	1.7572484000539323	0.5197897811626683	0.0	1.7509800347146631	0.14730316735830995	0.0	1.7609151376505043	-0.005476762761732657	0.0	1.7097329466274735	-0.009945822477423275	0.0	1.765100731509331	0.09851183406750053	0.0	1.9465134146947787	0.9772766920380974	0.0	1.7372661795040667	1.3190275476834636	0.0	1.5854323337293204	0.8925808144773795	0.0	1.3955060891636855	0.9376820174771302	0.0	1.4194494056526301	0.898791293164924	0.0	1.5729012280541514	0.7926859830024879	0.0	1.7974849814307345	1.514186819976034	0.0	1.8099116329335456	1.7579656755812882	0.0	1.8438748752931815	1.612276376803763	0.0	1.6515464254599999	1.4332084220881829	0.0	1.4891382077128843	1.2446388690521328	0.0	1.6078106509183774	1.486679847067148	0.0	1.9631757948134543	1.4805137568949327	0.0	2.0206252408542182	1.2715037004017298	0.0	1.8407901509445204	1.4757232507233173	0.0
186	6.2	1.855248089781426	0.9853002989419212	0.0	1.7753182914364511	0.9407982382185648	0.0	1.7650838265777524	0.5194652497878722	0.0	1.754412970902675	0.1447980899779072	0.0	1.7616028537117316	-0.00962986709842672	0.0	1.7094506789880175	-0.011999778685650962	0.0	1.7676395150426079	0.09645915158231172	0.0	1.9567100054796842	0.9784459064024774	0.0	1.7394567010311501	1.3031699690675065	0.0	1.602160680478875	0.872175951677817	0.0	1.4071220614871425	0.9057609844579538	0.0	1.4333167965651206	0.8656290036904543	0.0	1.5967266929866686	0.7669412441784301	0.0	1.8032566566862784	1.5253027374635495	0.0	1.8273491842407257	1.7699309052658805	0.0	1.8606465155825704	1.6214396426021862	0.0	1.6570062923230298	1.4461351063486618	0.0	1.4964963576429071	1.2399734119979198	0.0	1.6140875617696055	1.4740196425200607	0.0	1.9666155786939818	1.4898090078084585	0.0	2.0160799078314042	1.2714051434258977	0.0	1.8451132817126343	1.4693930700994222	0.0
187	6.233333333333333	1.8617674986493093	0.995351748731474	0.0	1.7805578369384907	0.9467306559480435	0.0	1.7725468169817975	0.5137214236631777	0.0	1.7597434003282613	0.14384512172979533	0.0	1.7618539745937951	-0.008755168298722618	0.0	1.7091055111405506	-0.008391335543138862	0.0	1.7725166470047398	0.09557080843715772	0.0	1.9686498038987403	0.978744711848879	0.0	1.7431984159681944	1.2671827739994035	0.0	1.624208612206163	0.8289751220575149	0.0	1.427871932859394	0.8416506209373268	0.0	1.4597041371196127	0.8040724699917758	0.0	1.6283024281293106	0.7322144904020805	0.0	1.804381865811821	1.5304194474680493	0.0	1.8342336442400382	1.7797386303232152	0.0	1.8723365791811473	1.6325563397726852	0.0	1.660905225933503	1.4482137531630075	0.0	1.5068266611364027	1.23095098585991	0.0	1.6213163219600264	1.4531078749471968	0.0	1.9701157689202526	1.493213475088444	0.0	2.0236873720279136	1.2697754025042118	0.0	1.8484640733514772	1.46276819887943	0.0
188	6.266666666666667	1.8662652703698683	1.014657203989666	0.0	1.7844618635188247	0.9607008102397518	0.0	1.777145813825214	0.5089410852695052	0.0	1.7646903882323495	0.14591112358961816	0.0	1.7612290317410946	-0.004197024983827757	0.0	1.7094925505289922	-0.001101040242104697	0.0	1.7775633791515213	0.0946839811942656	0.0	1.977156455980929	0.9847069600913898	0.0	1.7492221521690434	1.214287182540137	0.0	1.647226357914794	0.7680508534364495	0.0	1.4490068946674248	0.7529420242151386	0.0	1.4858150455535177	0.7196919064049165	0.0	1.6567298008237725	0.6914005336368473	0.0	1.8042805808368456	1.5307292318797925	0.0	1.8356590528537648	1.7861184055876194	0.0	1.8814106280945861	1.6411147387596963	0.0	1.6629258127432582	1.4482834030311427	0.0	1.5225856681720766	1.2202114309174807	0.0	1.6245822351520178	1.423009594113482	0.0	1.9748427694057853	1.4917133535053344	0.0	2.042695328555841	1.2631087828621665	0.0	1.8508410397891304	1.4494210940429362	0.0
